<?xml version="1.0" standalone="no"?>
<!DOCTYPE svg PUBLIC "-//W3C//DTD SVG 20010904//EN"
 "http://www.w3.org/TR/2001/REC-SVG-20010904/DTD/svg10.dtd">
<svg version="1.0" xmlns="http://www.w3.org/2000/svg"
 width="1023.000000pt" height="284.000000pt" viewBox="0 0 1023.000000 284.000000"
 preserveAspectRatio="xMidYMid meet">

<g transform="translate(0.000000,284.000000) scale(0.100000,-0.100000)"
fill="#000000" stroke="none">
<path d="M6669 2787 c-2 -2 -481 -7 -1064 -11 -583 -4 -1141 -9 -1240 -11 -99
-3 -461 -10 -805 -15 -344 -6 -704 -12 -800 -15 -96 -3 -416 -12 -710 -20
-804 -22 -890 -24 -1210 -35 -162 -6 -416 -14 -563 -19 -148 -5 -271 -12 -274
-15 -4 -3 -4 -9 0 -12 3 -3 144 -1 314 5 510 18 583 21 983 31 212 6 507 15
655 20 149 5 383 12 520 15 138 3 457 10 710 15 618 14 831 18 1500 25 314 4
576 9 584 11 7 2 842 6 1855 8 1700 4 2569 -2 2954 -18 92 -4 152 -3 152 3 0
9 -176 17 -630 26 -322 7 -2924 17 -2931 12z"/>
<path d="M2952 2203 c0 -259 -15 -330 -63 -287 -21 19 -139 251 -139 274 0 13
-41 71 -84 117 -23 26 -32 30 -43 21 -21 -17 -8 -190 23 -308 14 -52 28 -108
32 -125 5 -17 15 -31 26 -33 18 -4 18 2 12 94 -4 55 -12 127 -18 162 -5 35 -8
65 -6 68 3 2 22 -33 43 -78 49 -109 121 -229 148 -249 27 -20 59 -10 81 23 18
28 40 167 32 206 -3 15 -2 68 2 117 9 102 -5 188 -30 193 -14 3 -16 -20 -16
-195z"/>
<path d="M8708 2367 c-23 -18 -56 -54 -72 -81 -26 -41 -30 -58 -30 -115 0 -56
5 -76 34 -130 29 -53 41 -66 79 -83 71 -30 121 -1 121 72 0 43 -25 87 -60 105
-30 16 -65 13 -107 -7 -13 -6 -26 -8 -30 -5 -12 12 -5 101 10 130 21 41 105
97 144 97 34 0 43 16 21 38 -21 21 -65 13 -110 -21z m60 -277 c26 -16 32 -26
32 -55 0 -58 -56 -60 -111 -5 -35 34 -37 57 -6 70 34 13 49 12 85 -10z"/>
<path d="M8976 2365 c-56 -86 -50 -201 15 -266 31 -31 75 -25 116 16 19 19 37
35 40 35 6 0 -2 -99 -15 -210 l-7 -55 -318 -3 c-282 -2 -318 0 -324 14 -5 15
-1 48 31 239 23 133 20 225 -6 225 -5 0 -7 -13 -3 -29 3 -17 2 -32 -4 -36 -6
-3 -11 -33 -11 -67 0 -33 -10 -101 -21 -151 -14 -57 -20 -109 -17 -143 l5 -54
-204 0 -204 0 7 98 c3 53 12 127 20 164 13 66 11 98 -7 98 -5 0 -9 9 -9 19 0
27 -37 51 -77 51 -28 0 -37 -7 -59 -42 -33 -52 -38 -86 -20 -130 19 -45 44
-66 85 -70 l34 -3 -2 -90 c-1 -49 -4 -92 -7 -94 -2 -3 -209 -6 -459 -9 -373
-3 -456 -1 -459 10 -11 31 -15 231 -6 280 5 29 11 85 12 123 3 68 2 70 -22 73
-14 2 -29 8 -34 13 -13 12 -68 12 -98 0 -13 -5 -42 -28 -65 -51 -34 -36 -42
-52 -48 -97 -6 -47 -3 -59 16 -88 13 -18 37 -40 54 -48 27 -13 35 -13 65 0 19
7 42 21 52 30 17 15 18 13 18 -48 0 -35 3 -94 7 -131 l6 -68 -267 0 -267 0 7
23 c4 12 7 101 7 197 -1 140 -4 183 -18 218 -26 64 -44 55 -33 -15 11 -77 12
-403 2 -413 -5 -4 -58 -10 -117 -13 l-109 -4 7 97 c11 151 9 330 -3 342 -16
16 -32 0 -32 -33 0 -69 -72 -159 -128 -159 -27 0 -64 61 -59 97 5 38 17 63 29
63 6 0 23 11 40 25 16 14 38 25 48 25 10 0 22 5 26 11 3 6 22 9 40 7 19 -2 34
-3 34 -2 0 1 -19 12 -42 24 l-43 22 -62 -33 c-63 -34 -93 -71 -107 -132 -9
-38 28 -121 60 -136 51 -23 112 -7 135 35 7 13 16 24 21 24 10 0 11 -131 2
-219 l-7 -61 -207 0 -207 0 -6 117 c-3 65 -3 121 -1 125 3 4 24 8 48 8 50 0
59 6 45 32 -8 16 -19 19 -57 17 l-47 -3 -17 69 c-9 38 -14 73 -12 77 3 4 -7 8
-22 8 -29 0 -29 -3 -5 -120 5 -25 8 -46 6 -48 -1 -1 -31 -8 -66 -13 -92 -16
-94 -16 -79 -34 14 -17 101 -21 130 -5 10 6 21 7 24 2 2 -4 8 -56 12 -116 l7
-108 -23 7 c-14 4 -25 3 -30 -4 -5 -9 -123 -13 -426 -17 -230 -2 -501 -6 -601
-9 l-183 -4 0 37 c0 20 -3 47 -6 59 -5 17 3 32 30 59 33 33 39 36 88 32 44 -2
53 0 56 14 4 23 -42 41 -84 33 -18 -3 -49 -17 -69 -31 -21 -14 -38 -24 -39
-22 -2 2 -9 18 -16 37 -17 43 -57 91 -76 91 -22 0 -16 -29 14 -69 46 -58 56
-94 43 -145 -14 -58 -14 -66 4 -66 8 0 15 -5 15 -11 0 -6 -7 -9 -15 -5 -8 3
-15 1 -15 -5 0 -19 -35 -4 -36 16 -1 11 -2 24 -3 28 -1 4 -11 -4 -24 -19 -20
-23 -28 -25 -56 -19 -19 4 -53 25 -77 47 -40 37 -44 45 -44 87 0 26 7 56 15
67 8 10 15 26 15 35 0 9 12 22 26 29 22 12 27 12 34 0 17 -27 11 -44 -32 -87
-31 -31 -39 -46 -31 -54 16 -16 48 4 83 52 42 58 47 95 18 119 -12 11 -33 19
-45 20 -25 0 -93 -55 -93 -75 0 -21 -22 -30 -34 -14 -24 32 -62 49 -106 49
-36 0 -53 -6 -84 -32 -27 -22 -40 -28 -46 -19 -4 7 -12 62 -18 122 -12 111
-16 129 -32 129 -17 0 -21 -40 -11 -97 24 -135 40 -253 43 -323 l3 -75 -279 0
-279 0 -23 65 c-16 46 -23 88 -24 142 0 76 -11 101 -33 79 -6 -6 -10 -35 -8
-65 3 -73 -38 -156 -79 -156 -21 0 -66 47 -79 83 -20 53 -11 117 16 117 13 0
13 3 3 15 -16 20 -33 19 -52 -2 -24 -28 -27 -57 -12 -114 17 -66 40 -98 85
-123 41 -22 78 -17 109 16 22 24 21 24 38 -15 19 -43 15 -52 -20 -52 -110 0
-932 -16 -1078 -21 l-175 -6 0 68 c0 65 -1 69 -24 72 -60 9 -91 -24 -91 -97 0
-43 -10 -51 -66 -51 -39 0 -38 -3 -19 44 41 98 56 254 31 336 -18 62 -40 73
-70 35 -48 -59 -77 -279 -47 -358 19 -51 15 -57 -37 -57 -26 0 -53 5 -60 12
-8 8 -12 50 -12 123 0 105 -9 149 -27 131 -7 -7 -10 -40 -16 -213 l-2 -51
-120 -6 c-240 -12 -860 -21 -871 -13 -8 5 -9 20 -4 45 5 20 11 59 15 86 3 27
9 54 12 60 4 5 9 61 12 125 l6 115 50 -75 c76 -113 111 -107 192 35 26 47 51
86 54 86 14 0 16 -42 12 -166 -7 -163 18 -346 37 -274 9 34 -3 542 -13 557
-13 20 -32 5 -46 -35 -20 -55 -76 -152 -116 -197 l-35 -40 -23 29 c-12 17 -31
44 -42 62 -114 180 -118 179 -116 -16 2 -125 -2 -159 -23 -244 -14 -54 -28
-101 -31 -104 -3 -3 -31 20 -62 50 -32 30 -67 60 -79 66 -19 10 -21 9 -16 -15
3 -15 33 -53 70 -90 36 -34 64 -65 61 -67 -2 -3 -108 -6 -234 -7 -230 -2 -255
-4 -255 -20 0 -9 390 -5 940 12 353 10 619 8 727 -6 29 -4 59 -3 69 3 13 7 27
4 56 -15 34 -23 45 -25 101 -20 34 3 80 1 103 -5 43 -12 99 -4 89 12 -3 6 -15
10 -26 10 -29 0 -83 30 -73 40 11 11 1194 35 1299 27 39 -3 77 -2 85 3 8 4
249 11 535 15 517 6 521 6 539 -14 24 -26 42 -27 48 -3 5 18 24 19 249 25 134
4 523 10 865 13 478 6 623 4 628 -5 6 -9 11 -9 22 0 10 8 129 13 409 16 360 5
395 4 395 -11 0 -20 9 -20 31 0 17 15 116 17 1046 20 565 3 1192 6 1393 9 201
2 442 5 535 6 108 1 156 4 131 9 -21 4 -108 6 -193 4 -96 -2 -153 0 -153 6 0
6 4 10 10 10 5 0 21 20 35 43 18 32 25 58 25 96 0 75 -11 91 -66 91 -67 0
-110 21 -117 58 -7 36 19 121 39 129 22 8 16 25 -7 21 -32 -5 -59 -63 -59
-126 0 -72 32 -106 108 -115 68 -8 72 -11 72 -55 0 -43 -28 -94 -64 -117 -22
-15 -27 -15 -53 -1 -39 20 -51 35 -62 82 l-9 39 -1 -41 c-1 -29 7 -52 24 -78
14 -20 25 -39 25 -41 0 -7 -113 -6 -149 1 -25 5 -30 11 -25 23 24 56 16 96
-27 145 l-30 35 46 61 c37 51 45 70 45 105 0 36 -5 48 -30 69 -30 25 -31 25
-83 10 -65 -19 -88 -34 -106 -67 -12 -23 -11 -32 9 -82 13 -31 29 -59 36 -62
25 -10 25 -41 0 -80 -31 -46 -44 -116 -26 -138 19 -23 -4 -27 -132 -23 l-113
3 5 70 c9 153 5 358 -7 362 -9 3 -13 -7 -13 -29 -1 -68 -68 -168 -114 -168
-18 0 -31 12 -50 44 -14 25 -26 54 -26 66 0 18 21 85 45 143 11 26 -10 20 -29
-8z m-1943 -46 c22 -10 24 -16 20 -53 -7 -54 -25 -88 -63 -120 -39 -32 -51
-32 -89 0 -53 44 -36 118 37 161 42 25 61 28 95 12z m2529 -16 c26 -31 28 -53
8 -91 -22 -42 -65 -92 -78 -92 -12 0 -45 38 -70 82 l-21 37 30 26 c17 14 41
25 54 25 12 0 28 7 35 15 16 19 24 19 42 -2z m-1535 -41 c31 -20 7 -131 -32
-146 -28 -11 -35 -7 -52 29 -15 31 -15 40 -4 73 8 20 19 40 25 44 14 10 48 10
63 0z m-6223 -108 c18 -47 0 -248 -27 -299 -10 -18 -10 -18 -19 5 -13 34 -12
165 2 220 6 25 14 55 17 68 6 26 18 29 27 6z m2303 -96 c29 -27 38 -66 19 -87
-14 -16 -106 -62 -148 -75 -24 -7 -23 -36 0 -36 35 0 119 30 147 52 28 22 29
22 39 3 6 -11 24 -32 40 -47 l28 -28 -146 0 -146 0 -6 26 c-10 39 2 152 17
171 45 54 110 63 156 21z m5422 -33 c39 -45 41 -86 5 -114 -32 -25 -52 -26
-82 -5 -30 21 -29 69 3 117 14 20 30 37 34 37 5 0 23 -16 40 -35z m-7549 -150
c0 -33 -20 -75 -37 -75 -17 0 -18 71 -1 88 20 20 38 14 38 -13z m-70 -115 c0
-5 -18 -10 -40 -10 -22 0 -40 5 -40 10 0 6 18 10 40 10 22 0 40 -4 40 -10z"/>
<path d="M7263 2370 c-13 -5 -23 -16 -23 -25 0 -13 8 -15 50 -9 54 7 80 -5 80
-36 0 -30 -49 -79 -91 -91 -68 -21 -45 -52 30 -42 34 5 46 2 66 -17 48 -45 45
-123 -7 -172 -34 -32 -96 -39 -118 -13 -7 8 -21 15 -31 15 -31 0 -22 -33 16
-59 46 -31 111 -23 159 20 45 39 59 78 54 144 -4 46 -10 62 -37 89 l-33 34 27
40 c25 38 25 41 11 75 -8 20 -23 40 -34 46 -25 13 -88 13 -119 1z"/>
<path d="M9790 2371 c-21 -14 -4 -26 58 -39 74 -16 127 -15 142 3 18 21 5 30
-43 30 -23 1 -64 4 -92 8 -29 4 -56 3 -65 -2z"/>
<path d="M4814 2355 c-8 -19 26 -59 39 -46 14 14 4 55 -16 59 -9 2 -20 -4 -23
-13z"/>
<path d="M5720 2340 c8 -5 20 -10 25 -10 6 0 3 5 -5 10 -8 5 -19 10 -25 10 -5
0 -3 -5 5 -10z"/>
<path d="M7202 2331 c2 -7 7 -12 11 -12 12 1 9 15 -3 20 -7 2 -11 -2 -8 -8z"/>
<path d="M7606 2319 c-38 -30 -31 -94 16 -160 8 -12 6 -21 -13 -43 -35 -39
-79 -125 -79 -152 0 -32 34 -64 68 -64 42 0 114 41 139 78 24 37 19 75 -17
124 -26 35 -25 48 3 48 12 0 41 9 65 20 36 16 42 23 42 50 0 43 -25 87 -60
105 -44 23 -131 20 -164 -6z m177 -57 c25 -42 14 -56 -60 -77 -63 -18 -75 -13
-99 44 -16 38 -12 66 9 58 8 -3 20 -1 28 4 8 5 34 8 59 7 38 -3 47 -7 63 -36z
m-73 -231 c0 -32 -36 -68 -89 -91 -28 -11 -34 -11 -48 2 -13 14 -13 21 6 64
12 26 33 63 48 82 l26 35 29 -32 c17 -19 28 -43 28 -60z"/>
<path d="M1290 2268 c0 -18 5 -93 10 -166 6 -74 11 -169 12 -213 1 -44 5 -82
10 -85 4 -3 20 4 34 15 15 12 39 21 53 21 39 0 114 41 128 70 7 14 13 44 13
66 0 36 -5 47 -35 73 -20 17 -45 31 -56 31 -25 0 -71 -23 -88 -44 -8 -9 -17
-16 -21 -16 -6 0 -22 147 -21 195 1 29 -19 85 -30 85 -5 0 -9 -15 -9 -32z
m216 -285 c10 -51 -18 -84 -87 -99 -30 -7 -57 -13 -61 -14 -12 0 5 85 24 117
37 63 112 60 124 -4z"/>
<path d="M8217 2289 c-25 -15 -21 -27 13 -34 69 -15 76 -86 19 -181 -26 -42
-43 -57 -81 -74 -38 -16 -48 -25 -48 -44 0 -43 48 -38 98 11 28 27 56 35 120
31 56 -2 67 0 70 14 2 12 -9 19 -48 27 -28 6 -54 10 -58 8 -15 -5 -12 15 13
68 29 65 31 91 8 125 -9 14 -17 26 -18 27 0 1 -17 9 -36 17 -24 10 -40 11 -52
5z"/>
<path d="M1575 2210 c-7 -11 11 -40 25 -40 10 0 1 38 -11 45 -4 3 -11 1 -14
-5z"/>
<path d="M3527 2122 c-15 -15 -27 -33 -27 -40 0 -17 -15 -15 -30 3 -13 16 -40
21 -40 7 0 -4 5 -13 12 -20 7 -7 14 -56 17 -114 5 -81 9 -103 21 -106 13 -2
18 16 27 93 24 203 95 217 94 18 -1 -103 29 -110 43 -9 5 44 40 107 70 128 31
21 71 -60 71 -147 0 -47 3 -60 15 -60 33 0 23 153 -13 207 -30 44 -72 49 -115
14 -36 -31 -42 -32 -42 -6 0 25 -34 60 -58 60 -10 0 -30 -13 -45 -28z"/>
<path d="M1077 2085 c-77 -62 -104 -138 -76 -212 18 -49 48 -73 92 -73 61 0
99 24 137 87 31 50 35 66 35 123 0 93 -19 120 -84 120 -43 0 -56 -5 -104 -45z
m144 -17 c16 -31 14 -99 -5 -135 -8 -17 -31 -44 -51 -62 -47 -41 -86 -42 -114
-2 -22 30 -28 85 -11 96 5 3 7 12 4 19 -3 8 7 23 22 35 30 24 112 29 132 9 20
-20 26 0 8 26 -18 29 -20 36 -6 36 5 0 15 -10 21 -22z"/>
<path d="M4909 2114 c-10 -3 -15 -12 -12 -22 3 -15 20 -17 125 -17 80 0 123 4
125 11 6 17 -196 41 -238 28z"/>
<path d="M4743 1883 c9 -9 19 -14 23 -11 10 10 -6 28 -24 28 -15 0 -15 -1 1
-17z"/>
<path d="M6615 1556 c-161 -75 -258 -267 -225 -448 7 -40 17 -80 21 -90 5 -10
14 -27 19 -38 17 -34 11 -40 -41 -40 -37 0 -55 5 -64 17 -10 14 -17 15 -41 5
-47 -18 -170 -22 -194 -5 -32 23 -24 76 28 180 34 67 26 76 -71 83 -72 5 -72
5 -90 43 -12 25 -24 37 -38 37 -18 0 -20 -4 -13 -27 4 -16 7 -57 7 -93 0 -74
-37 -164 -72 -175 -26 -8 -65 18 -92 62 -19 31 -21 44 -15 113 7 90 6 91 -65
97 -46 4 -109 -16 -109 -35 0 -4 -7 -16 -15 -27 -15 -19 -15 -19 -31 3 -36 52
-147 80 -185 46 -16 -14 -18 -11 -28 49 -6 35 -11 73 -11 83 0 11 -6 28 -13
38 -13 17 -14 17 -25 -10 -9 -22 -9 -38 -1 -64 6 -19 13 -118 15 -219 3 -183
8 -207 39 -198 5 2 11 50 12 108 4 167 23 200 96 174 55 -19 74 -40 82 -93 6
-40 3 -54 -22 -99 -24 -46 -26 -55 -13 -63 18 -11 36 -7 33 8 -1 5 4 15 11 21
10 8 19 4 39 -19 46 -52 90 -38 140 42 l16 26 44 -44 c38 -37 50 -44 84 -44
28 0 45 6 60 23 30 32 55 85 67 142 l11 50 49 3 c73 5 82 -1 58 -40 -24 -41
-45 -125 -40 -169 l3 -32 -205 -4 c-113 -1 -310 -5 -438 -7 l-233 -3 25 26
c33 34 33 48 1 63 -18 8 -24 17 -19 27 15 39 15 127 0 164 -38 87 -73 5 -52
-121 7 -39 5 -45 -27 -77 -24 -24 -44 -35 -65 -35 -48 0 -90 20 -110 52 -18
28 -19 35 -6 87 26 111 12 159 -33 107 -18 -21 -23 -38 -22 -79 1 -29 -4 -64
-10 -79 -13 -35 -83 -86 -113 -82 -13 1 -27 3 -33 3 -5 1 -16 5 -24 10 -10 7
-10 12 5 30 32 36 63 141 64 209 0 54 -4 66 -25 87 -32 33 -52 31 -89 -9 -43
-46 -68 -130 -65 -216 1 -39 0 -73 -4 -76 -3 -3 -28 -3 -55 1 l-50 7 2 68 c1
65 -1 70 -33 104 -55 56 -157 58 -196 3 l-15 -21 -16 22 c-31 44 -109 66 -153
42 -10 -5 -24 -23 -31 -40 -16 -39 -23 -38 -43 5 -17 35 -52 53 -82 41 -21 -8
-19 -26 3 -26 29 0 66 -84 77 -180 8 -64 14 -85 25 -85 12 0 16 19 21 80 3 50
13 98 27 129 20 45 24 48 49 41 57 -14 103 -80 103 -149 0 -19 -4 -38 -10 -41
-5 -3 -10 -17 -10 -31 0 -19 5 -24 24 -24 30 0 35 14 42 109 7 95 22 121 70
121 42 0 89 -23 104 -49 15 -29 12 -77 -5 -91 -28 -24 -17 -48 31 -70 42 -18
123 -29 149 -19 12 4 115 -33 115 -42 0 -3 -182 -7 -405 -8 -223 -1 -412 -4
-420 -8 -8 -3 -15 0 -15 6 0 6 6 11 14 11 8 0 24 8 36 18 18 15 22 24 16 47
l-7 28 -22 -21 c-26 -24 -82 -31 -114 -14 -35 19 -57 92 -50 165 3 35 -2 128
-11 212 -16 137 -19 150 -37 150 -19 0 -20 -6 -17 -109 2 -100 1 -108 -15
-101 -10 4 -40 10 -66 13 -46 4 -49 3 -92 -41 -24 -26 -52 -61 -61 -79 -24
-47 -25 -169 0 -231 10 -27 16 -50 14 -52 -4 -5 -185 -9 -815 -21 -317 -5
-331 -5 -330 13 2 16 -8 18 -88 21 -49 2 -94 7 -98 11 -5 5 2 37 16 73 44 110
52 179 30 283 l-18 90 -38 -1 c-24 -1 -46 -9 -61 -23 -52 -49 -94 -241 -74
-335 5 -25 21 -62 34 -82 14 -20 24 -37 22 -39 -21 -17 -62 -25 -136 -25 l-89
0 -11 37 c-6 21 -14 72 -17 113 -3 41 -10 79 -15 84 -20 20 -34 -14 -34 -82
-1 -58 -6 -75 -29 -110 l-27 -42 -76 0 c-80 0 -114 11 -114 36 0 8 7 38 16 65
13 38 14 53 5 62 -15 15 -24 3 -50 -73 -26 -76 -50 -100 -98 -100 -70 0 -85
24 -61 102 14 47 75 88 131 88 29 0 37 4 37 18 0 69 -100 48 -169 -36 l-30
-36 -10 26 c-5 14 -20 33 -33 42 -28 20 -98 21 -124 1 -27 -21 -44 -18 -44 6
0 25 -61 89 -84 89 -30 0 -81 -27 -112 -59 l-30 -31 -24 25 c-14 15 -35 25
-52 25 -34 0 -38 -24 -7 -40 27 -15 51 -73 43 -104 -3 -13 -1 -27 5 -31 6 -3
9 -11 6 -16 -10 -15 5 -49 21 -49 8 0 14 10 15 23 1 12 2 31 3 42 1 11 3 32 4
48 1 17 18 45 44 73 34 37 47 44 71 42 23 -2 35 -12 50 -40 17 -35 18 -46 8
-120 -6 -45 -12 -82 -14 -84 -1 -1 -112 -5 -247 -9 -169 -4 -240 -3 -230 4 8
6 36 11 61 11 43 0 79 20 79 45 0 4 -49 5 -110 1 -109 -7 -109 -7 -115 17 -4
12 -5 48 -3 78 l3 54 65 8 c44 6 71 5 83 -3 24 -14 49 5 45 34 -3 20 -8 21
-100 18 l-98 -2 1 37 c0 60 30 125 68 150 35 24 105 31 116 13 3 -5 19 -10 36
-10 23 0 29 4 29 21 0 24 -52 49 -105 49 -52 0 -129 -42 -145 -79 -6 -16 -23
-37 -36 -46 -22 -14 -23 -20 -18 -73 5 -46 3 -60 -10 -71 -14 -12 -15 -16 -2
-30 7 -9 16 -51 20 -96 l7 -80 -31 -12 c-21 -8 -28 -16 -24 -27 5 -14 -13 -16
-165 -16 -151 0 -171 -2 -171 -16 0 -15 35 -16 397 -10 219 4 489 9 600 12
187 5 202 4 211 -13 10 -17 11 -17 17 0 9 23 31 22 62 -3 34 -26 75 -25 123 3
l40 22 49 -28 c65 -36 115 -36 170 1 52 35 82 34 99 -1 14 -28 27 -34 37 -17
3 5 36 10 73 10 46 0 81 7 112 21 50 23 49 23 750 33 212 4 459 9 550 12 139
5 170 3 195 -10 37 -20 94 -21 120 -2 15 10 87 15 295 20 519 12 1090 18 1090
13 0 -3 -12 -19 -26 -34 -68 -73 -100 -192 -69 -257 45 -94 145 -127 205 -67
42 41 63 125 64 256 l1 110 90 1 c312 2 832 4 900 2 44 -1 130 2 191 7 106 7
114 7 149 -15 31 -19 46 -22 94 -17 31 2 75 14 96 26 36 19 55 21 227 21 104
0 188 -2 188 -5 0 -2 -13 -26 -30 -52 -32 -49 -39 -107 -20 -144 11 -20 79
-59 104 -59 47 0 105 97 121 203 4 26 11 50 16 53 5 3 237 10 516 15 476 10
508 9 520 -7 11 -16 13 -16 19 -1 9 24 161 24 206 1 40 -21 119 -20 134 1 8
11 35 17 95 20 65 3 621 14 994 19 38 1 40 -1 43 -31 4 -39 -11 -43 -45 -11
-13 12 -23 17 -23 12 0 -6 14 -23 30 -39 38 -37 63 -26 70 31 l5 39 188 3
c128 2 187 6 187 13 0 8 -55 10 -187 8 l-188 -4 -7 94 c-6 73 -14 108 -37 157
-36 76 -53 81 -110 29 l-39 -35 -21 35 c-26 45 -47 44 -104 -5 -52 -46 -57
-48 -57 -20 0 33 -24 33 -89 1 -33 -17 -63 -31 -66 -31 -2 0 -8 19 -11 43 -5
28 -18 53 -40 75 -46 46 -72 40 -105 -21 -14 -26 -35 -54 -47 -62 -29 -21 -36
-66 -22 -142 9 -47 21 -75 42 -99 l30 -34 -82 0 c-69 0 -81 2 -76 15 4 13 2
14 -14 5 -54 -29 -116 68 -104 160 8 52 31 92 83 137 l36 33 -30 0 c-66 0
-111 -62 -121 -168 -7 -76 3 -119 38 -159 19 -20 19 -21 1 -26 -10 -3 -91 -4
-180 -4 -162 2 -163 2 -189 29 l-27 26 32 48 c40 61 71 161 71 230 0 72 -27
178 -51 200 -19 17 -21 16 -51 -17 -18 -19 -33 -43 -34 -54 -1 -11 -10 -58
-20 -105 -18 -88 -22 -187 -9 -252 7 -37 7 -38 -23 -38 -17 0 -42 4 -56 10
-24 9 -25 14 -28 87 -3 70 -5 78 -23 78 -18 0 -20 -7 -22 -64 -2 -71 -6 -79
-28 -61 -26 21 -31 -17 -6 -44 25 -26 19 -56 -10 -56 -31 0 -97 38 -115 65
-11 16 -14 34 -9 55 8 39 -3 90 -20 90 -18 0 -25 -23 -25 -83 0 -60 -26 -111
-66 -129 -24 -11 -29 -9 -50 15 -33 39 -40 74 -23 121 18 51 71 90 112 82 30
-6 35 5 11 24 -37 31 -105 4 -146 -58 -26 -39 -24 -138 2 -172 11 -14 20 -28
20 -32 0 -5 -104 -8 -231 -8 l-232 0 8 82 c7 88 22 126 63 171 31 33 56 34 76
5 18 -25 21 -105 8 -153 -5 -17 -7 -36 -5 -42 8 -23 32 -14 39 15 14 65 27 93
51 112 63 49 114 3 114 -105 0 -36 4 -65 8 -65 14 0 31 51 31 94 0 112 -86
182 -157 126 -28 -22 -43 -18 -43 10 0 28 -48 80 -75 80 -28 0 -78 -40 -102
-81 -22 -37 -29 -37 -43 5 -11 34 -42 69 -72 79 -21 7 -33 -9 -16 -20 14 -9
42 -53 63 -98 7 -16 15 -71 16 -122 4 -103 4 -103 -72 -103 -66 0 -73 14 -63
116 14 146 11 210 -11 235 -18 19 -28 21 -85 17 -110 -8 -178 -56 -201 -142
-22 -82 2 -166 58 -199 l38 -22 -170 -5 c-93 -3 -172 -4 -174 -3 -2 2 7 12 21
23 78 60 126 211 114 357 -3 46 -13 101 -21 121 -51 122 -147 162 -260 108z
m148 -28 c46 -24 82 -92 98 -182 9 -55 8 -80 -5 -145 -18 -90 -30 -126 -47
-136 -29 -18 -33 43 -13 183 5 33 3 42 -8 42 -8 0 -23 9 -33 20 -14 16 -31 20
-80 20 -61 0 -63 -1 -104 -45 -50 -55 -61 -81 -61 -149 0 -71 31 -120 79 -124
51 -5 77 5 116 45 19 20 36 34 38 32 25 -43 37 -74 28 -77 -6 -2 -25 -13 -43
-25 -56 -38 -87 -47 -152 -47 -47 0 -67 4 -78 18 -52 58 -83 193 -67 291 18
116 82 200 201 264 54 29 96 34 131 15z m1798 -120 c6 -24 9 -79 7 -123 -3
-63 -10 -92 -34 -139 -16 -32 -33 -59 -39 -60 -19 -2 -28 96 -15 174 16 103
42 190 57 190 7 0 17 -19 24 -42z m-6433 -144 c16 -77 7 -162 -27 -244 -32
-79 -51 -86 -77 -28 -35 77 -13 226 43 301 15 20 33 35 38 33 6 -1 16 -29 23
-62z m7131 42 c14 -15 23 -38 24 -66 2 -39 -1 -44 -26 -52 -24 -9 -32 -6 -53
13 -29 27 -31 49 -4 49 24 0 25 8 4 31 -9 10 -14 25 -11 34 9 22 40 18 66 -9z
m-2521 -12 c44 -12 18 -116 -51 -199 -31 -37 -44 -45 -71 -45 -42 0 -63 23
-69 80 -4 39 0 52 30 97 29 43 42 54 72 59 20 3 41 7 46 9 15 5 18 5 43 -1z
m523 -94 c8 -102 -15 -155 -82 -188 -44 -21 -49 -22 -82 -9 -27 12 -39 25 -52
61 -22 56 -14 103 22 147 44 52 81 70 138 67 l50 -3 6 -75z m-2565 -24 c-18
-76 -66 -153 -87 -140 -5 3 -9 38 -9 77 0 70 1 73 41 117 l41 45 13 -24 c10
-19 10 -35 1 -75z m4930 50 c10 -28 11 -56 4 -113 -5 -41 -7 -79 -4 -84 18
-29 38 17 49 112 5 48 12 61 45 94 l39 39 26 -55 c17 -38 27 -81 31 -142 l7
-87 -244 -2 c-134 -1 -263 -2 -285 -3 l-41 -2 28 55 c16 30 29 67 29 83 0 16
9 37 23 49 27 27 116 73 119 63 1 -5 2 -53 3 -107 0 -112 18 -143 29 -51 3 31
13 73 21 92 17 39 81 106 98 100 6 -2 16 -20 23 -41z m-5966 24 c10 -6 16 -32
18 -79 5 -88 -15 -157 -66 -223 -30 -40 -42 -48 -68 -48 -38 0 -60 29 -80 104
-27 102 -17 151 44 215 35 37 43 41 88 41 27 0 56 -4 64 -10z m2022 -83 c-4
-82 -51 -177 -87 -177 -43 0 -65 134 -31 185 22 33 75 66 101 63 18 -3 20 -9
17 -71z m3500 17 c28 -32 36 -35 66 -30 l35 5 -6 -40 c-6 -43 -30 -87 -53 -96
-8 -3 -26 -2 -40 1 -28 7 -53 55 -61 117 -5 32 9 79 23 79 2 0 19 -16 36 -36z
m-7985 -166 c19 -17 23 -32 23 -78 0 -31 -5 -61 -12 -68 -7 -7 -42 -12 -89
-12 l-77 0 5 43 c7 64 23 97 57 118 40 25 64 24 93 -3z m6059 -15 c-10 -10
-19 5 -10 18 6 11 8 11 12 0 2 -7 1 -15 -2 -18z m914 -33 c0 -3 -23 -6 -50 -7
-28 0 -50 1 -50 3 0 3 7 18 15 35 l16 29 34 -27 c19 -16 35 -30 35 -33z
m-4447 4 c11 -22 28 -39 47 -46 52 -17 33 -28 -50 -28 l-80 0 27 55 c15 30 30
55 33 55 4 0 14 -16 23 -36z m1216 -32 c44 -18 41 -19 -91 -25 -103 -5 -142 4
-79 16 16 4 45 22 63 40 l33 35 19 -25 c11 -14 36 -32 55 -41z m3549 40 c3
-10 -13 -12 -69 -10 -48 2 -74 7 -77 16 -3 10 13 12 69 10 48 -2 74 -7 77 -16z
m-1243 -79 c-28 -131 -72 -201 -117 -184 -63 23 -62 105 3 170 34 34 48 41 80
41 38 0 39 -1 34 -27z m-5495 -18 c0 -8 -7 -15 -15 -15 -9 0 -12 6 -9 15 4 8
10 15 15 15 5 0 9 -7 9 -15z m3372 -56 c7 -148 -26 -268 -76 -277 -54 -11
-126 60 -126 122 0 80 109 226 169 226 l29 0 4 -71z m-4655 25 c-3 -3 -12 -4
-19 -1 -8 3 -5 6 6 6 11 1 17 -2 13 -5z"/>
<path d="M5227 1474 c-7 -8 3 -34 13 -34 4 0 10 9 13 20 5 19 -12 28 -26 14z"/>
<path d="M8332 1438 c3 -7 12 -14 21 -16 12 -2 15 1 11 12 -7 19 -38 22 -32 4z"/>
<path d="M2963 1331 c-10 -16 -5 -23 33 -52 51 -38 54 -56 18 -98 -21 -25 -29
-29 -44 -21 -29 16 -105 12 -227 -12 l-113 -21 0 -33 c0 -42 16 -51 43 -26 28
25 233 61 260 45 4 -2 -11 -27 -34 -54 -22 -27 -47 -69 -55 -94 -14 -49 -5
-61 15 -19 18 41 91 122 143 160 53 39 88 89 88 126 0 24 -55 85 -96 106 -16
8 -22 7 -31 -7z"/>
<path d="M2510 1313 c0 -20 18 -43 33 -43 4 0 7 12 5 27 -4 32 -38 46 -38 16z"/>
<path d="M370 1289 c0 -5 5 -7 10 -4 6 3 10 8 10 11 0 2 -4 4 -10 4 -5 0 -10
-5 -10 -11z"/>
<path d="M1750 1255 c0 -9 9 -15 21 -15 18 0 19 2 5 15 -8 8 -17 15 -20 15 -3
0 -6 -7 -6 -15z"/>
<path d="M8723 1174 c-7 -18 11 -39 26 -30 17 11 13 46 -4 46 -9 0 -18 -7 -22
-16z"/>
<path d="M2483 979 c-14 -14 -6 -37 18 -50 14 -7 19 -7 17 2 -2 7 8 16 22 20
14 4 19 7 12 8 -7 1 -20 8 -28 16 -18 18 -26 19 -41 4z"/>
<path d="M9995 104 c-11 -2 -173 -8 -360 -14 -187 -6 -389 -13 -450 -15 -214
-10 -1354 -38 -2240 -55 -758 -15 -765 -16 -205 -18 272 -1 628 2 790 8 162 5
491 14 730 20 419 10 1206 34 1455 44 66 3 203 8 305 12 204 7 283 24 105 22
-60 0 -119 -2 -130 -4z"/>
<path d="M6193 3 c9 -2 25 -2 35 0 9 3 1 5 -18 5 -19 0 -27 -2 -17 -5z"/>
</g>
</svg>
